<svg width="169" height="166" viewBox="0 0 169 166" fill="none" xmlns="http://www.w3.org/2000/svg">
<rect width="169" height="166" rx="83" fill="#D9D9D9" fill-opacity="0.1"/>
<path d="M83.4579 143.304H84.9139V157.72H83.4579V143.304Z" fill="white" fill-opacity="0.6"/>
<path d="M58.8265 139.425L59.5353 144.654L61.1613 145.327L62.9064 141.114L64.2515 141.672L59.9838 151.975L56.6579 150.597C55.8794 150.275 55.2791 149.87 54.8572 149.384C54.4254 148.893 54.1703 148.366 54.092 147.802C54.0137 147.239 54.095 146.666 54.3358 146.085C54.6297 145.376 55.0959 144.835 55.7343 144.465C56.3628 144.09 57.1228 143.984 58.0142 144.145L57.2153 138.757L58.8265 139.425ZM60.7143 146.406L58.7335 145.586C58.0043 145.284 57.3839 145.235 56.8723 145.439C56.3567 145.652 55.9743 146.059 55.7253 146.661C55.4722 147.272 55.4586 147.82 55.6845 148.306C55.9004 148.788 56.378 149.182 57.1171 149.488L59.0979 150.309L60.7143 146.406Z" fill="white" fill-opacity="0.6"/>
<path d="M49.8789 134.219C50.7392 134.793 51.3908 135.517 51.8336 136.391C52.2705 137.273 52.4574 138.212 52.3942 139.209C52.3163 140.209 51.9751 141.161 51.3706 142.066C50.7661 142.971 50.0199 143.646 49.1319 144.092C48.2292 144.54 47.2897 144.727 46.3135 144.652C45.3314 144.586 44.4101 144.266 43.5498 143.691C42.6807 143.11 42.0276 142.379 41.5907 141.496C41.1479 140.623 40.9625 139.691 41.0345 138.7C41.1065 137.709 41.4478 136.757 42.0581 135.843C42.6685 134.93 43.4177 134.25 44.3057 133.805C45.1937 133.359 46.1287 133.169 47.1109 133.235C48.0871 133.31 49.0097 133.638 49.8789 134.219ZM49.1767 135.27C48.5292 134.837 47.8476 134.6 47.1317 134.557C46.4069 134.509 45.7115 134.667 45.0455 135.03C44.3706 135.387 43.7872 135.934 43.2954 136.67C42.7976 137.415 42.5158 138.163 42.4499 138.915C42.3692 139.669 42.4853 140.369 42.7983 141.014C43.1112 141.659 43.5958 142.201 44.2521 142.64C44.9084 143.078 45.5945 143.319 46.3104 143.361C47.0263 143.403 47.7217 143.245 48.3966 142.888C49.0566 142.534 49.6356 141.984 50.1334 141.239C50.6252 140.503 50.9115 139.758 50.9922 139.004C51.064 138.243 50.9434 137.541 50.6305 136.895C50.3087 136.244 49.8241 135.702 49.1767 135.27Z" fill="white" fill-opacity="0.6"/>
<path d="M40.1777 127.914L37.4172 125.153L38.2544 124.316L42.0445 128.106L34.1588 135.992L33.1293 134.962L40.1777 127.914Z" fill="white" fill-opacity="0.6"/>
<path d="M25.3254 123.799L28.4251 121.728L26.1673 118.349L27.1651 117.682L29.4229 121.061L32.6157 118.928L30.0912 115.15L31.089 114.483L34.4224 119.472L25.1366 125.677L21.8031 120.688L22.8009 120.021L25.3254 123.799Z" fill="white" fill-opacity="0.6"/>
<path d="M20.8191 92.7692L21.768 97.5398L24.3751 97.9347L24.6748 99.4412L13.0132 97.6498L12.6855 96.0021L22.7769 89.9001L23.0766 91.4066L20.8191 92.7692ZM19.739 93.4082L14.6085 96.4842L20.5256 97.3627L19.739 93.4082Z" fill="white" fill-opacity="0.6"/>
<path d="M16.8665 65.3884C17.7767 65.5694 18.4727 66.0341 18.9547 66.7825C19.4282 67.5184 19.538 68.5245 19.2842 69.8008L18.8659 71.9036L23.4324 72.8119L23.1484 74.24L12.2106 72.0643L12.913 68.5335C13.1585 67.299 13.6429 66.422 14.3662 65.9024C15.0915 65.3724 15.925 65.2011 16.8665 65.3884ZM18.1072 69.5667C18.2654 68.7716 18.2093 68.1514 17.939 67.7061C17.6686 67.2608 17.2144 66.9747 16.5762 66.8478C15.2267 66.5793 14.3979 67.2193 14.0899 68.7676L13.6716 70.8704L17.6889 71.6695L18.1072 69.5667Z" fill="white" fill-opacity="0.6"/>
<path d="M26.1457 55.6776L24.2843 60.1713L26.2327 61.9482L25.6449 63.3673L16.9439 55.399L17.5868 53.8469L29.3676 54.3798L28.7798 55.7988L26.1457 55.6776ZM24.8926 55.6088L18.9179 55.3161L23.3497 59.3339L24.8926 55.6088ZM15.5711 52.2326L15.9521 56.0792L14.9469 55.6629L14.4033 51.7489L15.5711 52.2326Z" fill="white" fill-opacity="0.6"/>
<path d="M28.6422 40.9241C27.9294 40.8198 27.2636 40.9138 26.645 41.206C26.0175 41.4923 25.4875 41.9592 25.0549 42.6066C24.6223 43.2541 24.3819 43.9401 24.3338 44.6649C24.2828 45.3749 24.4359 46.0673 24.7932 46.7422C25.1475 47.4023 25.6883 47.9753 26.4155 48.4612C27.1428 48.9472 27.8792 49.2275 28.6246 49.3023C29.376 49.3681 30.0743 49.2446 30.7195 48.9317C31.3618 48.604 31.8993 48.1164 32.3319 47.469C32.9364 46.5643 33.1637 45.6386 33.0138 44.6917C32.8639 43.7449 32.3603 42.9145 31.5032 42.2007L29.032 45.899L28.0475 45.2412L31.3809 40.2524L32.3122 40.8747C33.0275 41.4553 33.5682 42.1629 33.9341 42.9975C34.2912 43.8263 34.4338 44.6977 34.3618 45.6117C34.281 46.5199 33.968 47.3819 33.4228 48.1979C32.848 49.0582 32.124 49.7097 31.2508 50.1526C30.3687 50.5895 29.4292 50.7764 28.4323 50.7132C27.4413 50.6412 26.4935 50.3029 25.5889 49.6985C24.6842 49.094 24.009 48.3478 23.5632 47.4598C23.1145 46.557 22.9276 45.6175 23.0026 44.6413C23.0687 43.6592 23.3892 42.738 23.964 41.8777C24.6218 40.8932 25.4464 40.187 26.438 39.7591C27.4354 39.3223 28.4931 39.2273 29.6111 39.474L28.6422 40.9241Z" fill="white" fill-opacity="0.6"/>
<path d="M33.4025 30.7653L41.2881 38.6509L40.2586 39.6805L32.3729 31.7948L33.4025 30.7653Z" fill="white" fill-opacity="0.6"/>
<path d="M53.8134 29.0185L52.6028 29.8274L42.8003 25.6973L47.7337 33.0808L46.5231 33.8897L40.3185 24.6039L41.5291 23.7949L51.3228 27.9117L46.3982 20.5415L47.6088 19.7326L53.8134 29.0185Z" fill="white" fill-opacity="0.6"/>
<path d="M62.5915 22.3321L58.0978 24.1934L58.219 26.8275L56.8 27.4153L56.2819 15.6284L57.834 14.9855L65.7875 23.6926L64.3684 24.2804L62.5915 22.3321ZM61.7541 21.3974L57.7363 16.9656L58.029 22.9404L61.7541 21.3974Z" fill="white" fill-opacity="0.6"/>
<path d="M85.7773 22.696H84.3213V8.28H85.7773V22.696Z" fill="white" fill-opacity="0.6"/>
<path d="M110.412 26.5757L109.703 21.3464L108.077 20.6729L106.332 24.8857L104.987 24.3286L109.255 14.0255L112.581 15.4031C113.359 15.7256 113.96 16.1301 114.382 16.6166C114.813 17.1072 115.068 17.6342 115.147 18.1978C115.225 18.7613 115.144 19.3338 114.903 19.9152C114.609 20.6247 114.143 21.1648 113.504 21.5353C112.876 21.91 112.116 22.0166 111.224 21.8552L112.023 27.2431L110.412 26.5757ZM108.524 19.5938L110.505 20.4142C111.234 20.7163 111.855 20.7655 112.366 20.5617C112.882 20.3481 113.264 19.9408 113.513 19.3396C113.766 18.7286 113.78 18.1801 113.554 17.694C113.338 17.212 112.861 16.8179 112.122 16.5118L110.141 15.6913L108.524 19.5938Z" fill="white" fill-opacity="0.6"/>
<path d="M119.36 31.7814C118.5 31.2066 117.848 30.4825 117.405 29.6093C116.968 28.7273 116.781 27.7878 116.844 26.7909C116.922 25.791 117.264 24.8388 117.868 23.9341C118.473 23.0295 119.219 22.3543 120.107 21.9085C121.01 21.4598 121.949 21.2729 122.925 21.3479C123.907 21.414 124.829 21.7345 125.689 22.3093C126.558 22.89 127.211 23.6214 127.648 24.5035C128.091 25.3767 128.276 26.3088 128.204 27.2998C128.132 28.2908 127.791 29.243 127.181 30.1565C126.57 31.07 125.821 31.7497 124.933 32.1955C124.045 32.6413 123.11 32.8311 122.128 32.765C121.152 32.69 120.229 32.3621 119.36 31.7814ZM120.062 30.7304C120.709 31.163 121.391 31.4004 122.107 31.4426C122.832 31.4907 123.527 31.3331 124.193 30.9699C124.868 30.6127 125.451 30.066 125.943 29.3298C126.441 28.5848 126.723 27.8367 126.789 27.0853C126.869 26.331 126.753 25.6312 126.44 24.9859C126.128 24.3407 125.643 23.7988 124.987 23.3603C124.33 22.9217 123.644 22.6814 122.928 22.6392C122.212 22.597 121.517 22.7546 120.842 23.1119C120.182 23.4662 119.603 24.0158 119.105 24.7608C118.613 25.497 118.327 26.2422 118.247 26.9965C118.175 27.7567 118.295 28.4595 118.608 29.1047C118.93 29.7559 119.415 30.2978 120.062 30.7304Z" fill="white" fill-opacity="0.6"/>
<path d="M129.061 38.0865L131.822 40.847L130.984 41.6843L127.194 37.8942L135.08 30.0085L136.11 31.0381L129.061 38.0865Z" fill="white" fill-opacity="0.6"/>
<path d="M143.913 42.2004L140.814 44.2716L143.071 47.6507L142.074 48.3174L139.816 44.9383L136.623 47.0717L139.147 50.8499L138.15 51.5165L134.816 46.5277L144.102 40.3231L147.436 45.3119L146.438 45.9786L143.913 42.2004Z" fill="white" fill-opacity="0.6"/>
<path d="M148.42 73.2308L147.471 68.4602L144.864 68.0653L144.564 66.5588L156.225 68.3502L156.553 69.9979L146.462 76.0999L146.162 74.5934L148.42 73.2308ZM149.5 72.5918L154.63 69.5158L148.713 68.6373L149.5 72.5918Z" fill="white" fill-opacity="0.6"/>
<path d="M152.372 100.612C151.462 100.431 150.766 99.9661 150.284 99.2177C149.811 98.4819 149.701 97.4758 149.955 96.1994L150.373 94.0966L145.806 93.1883L146.09 91.7603L157.028 93.9359L156.326 97.4667C156.08 98.7012 155.596 99.5782 154.873 100.098C154.147 100.628 153.314 100.799 152.372 100.612ZM151.132 96.4336C150.973 97.2286 151.029 97.8488 151.3 98.2941C151.57 98.7394 152.024 99.0255 152.663 99.1525C154.012 99.4209 154.841 98.781 155.149 97.2326L155.567 95.1298L151.55 94.3307L151.132 96.4336Z" fill="white" fill-opacity="0.6"/>
<path d="M143.096 110.322L144.958 105.829L143.009 104.052L143.597 102.633L152.298 110.601L151.655 112.153L139.874 111.62L140.462 110.201L143.096 110.322ZM144.349 110.391L150.324 110.684L145.892 106.666L144.349 110.391ZM153.671 113.767L153.29 109.921L154.295 110.337L154.839 114.251L153.671 113.767Z" fill="white" fill-opacity="0.6"/>
<path d="M140.596 125.076C141.309 125.18 141.975 125.086 142.594 124.794C143.221 124.508 143.751 124.041 144.184 123.393C144.616 122.746 144.857 122.06 144.905 121.335C144.956 120.625 144.803 119.933 144.446 119.258C144.091 118.598 143.55 118.025 142.823 117.539C142.096 117.053 141.36 116.772 140.614 116.698C139.863 116.632 139.164 116.755 138.519 117.068C137.877 117.396 137.339 117.884 136.907 118.531C136.302 119.436 136.075 120.361 136.225 121.308C136.375 122.255 136.878 123.085 137.736 123.799L140.207 120.101L141.191 120.759L137.858 125.748L136.927 125.125C136.211 124.545 135.671 123.837 135.305 123.002C134.947 122.174 134.805 121.302 134.877 120.388C134.958 119.48 135.271 118.618 135.816 117.802C136.391 116.942 137.115 116.29 137.988 115.847C138.87 115.41 139.809 115.224 140.806 115.287C141.797 115.359 142.745 115.697 143.65 116.302C144.554 116.906 145.23 117.652 145.675 118.54C146.124 119.443 146.311 120.382 146.236 121.359C146.17 122.341 145.85 123.262 145.275 124.122C144.617 125.107 143.792 125.813 142.801 126.241C141.803 126.678 140.746 126.773 139.628 126.526L140.596 125.076Z" fill="white" fill-opacity="0.6"/>
<path d="M135.836 135.235L127.951 127.349L128.98 126.32L136.866 134.205L135.836 135.235Z" fill="white" fill-opacity="0.6"/>
<path d="M115.429 136.982L116.639 136.173L126.442 140.303L121.508 132.92L122.719 132.111L128.924 141.397L127.713 142.205L117.919 138.089L122.844 145.459L121.633 146.268L115.429 136.982Z" fill="white" fill-opacity="0.6"/>
<path d="M106.647 143.669L111.141 141.807L111.02 139.173L112.439 138.585L112.957 150.372L111.405 151.015L103.451 142.308L104.87 141.72L106.647 143.669ZM107.485 144.603L111.502 149.035L111.21 143.06L107.485 144.603Z" fill="white" fill-opacity="0.6"/>
</svg>
