<svg width="70" height="44" viewBox="0 0 70 44" fill="none" xmlns="http://www.w3.org/2000/svg">
<g style="mix-blend-mode:color-dodge">
<path d="M35.7341 29.6786C35.7341 29.6786 31.0497 30.4951 27.7932 29.6786L23.8228 37.3571C28.8293 39.3943 31.7353 39.6572 37.0576 38.8928V29.6786H35.7341Z" fill="#DADADA"/>
<path d="M26.4697 37.3571H23.8228L26.4697 29.6786H27.7932L26.4697 37.3571Z" fill="#D4D4D4"/>
<path d="M31.7637 11.25V0.5H41.0281L47.6455 5.10714L48.969 6.64286H38.3811V11.25H31.7637Z" fill="#999999"/>
<path d="M32.9808 11.25H34.3269V9.23438V5.875H32.9808V11.25Z" fill="#8F8B8B"/>
<path d="M22.4993 15.8571L26.4697 11.25H33.0871V0.5L30.4402 0.657464C18.6959 2.19241 14.7578 6.62499 13.2349 20.4643H22.4993V15.8571Z" fill="#DADADA"/>
<path d="M34.4106 8.17857L33.0871 11.25V0.5H34.4106V8.17857Z" fill="#BCB9B9"/>
<path d="M22.4993 20.4643H13.2349V23.5357C13.4875 26.7605 14.0949 28.4377 15.8818 31.2143C18.5229 34.7753 20.3254 35.9576 23.8227 37.3571L27.7932 29.6786L25.1462 28.1428C23.2232 25.8844 22.6659 24.1909 22.4993 20.4643Z" fill="#E0E0E0"/>
<path d="M14.5583 18.9286L13.2348 20.4643H22.4992V18.9286H14.5583Z" fill="#D7D4D4"/>
<path d="M44.9985 35.8214C42.3364 37.7687 37.0576 38.8929 37.0576 38.8929V29.6786C38.0822 28.7802 37.0576 26.6071 37.0576 26.6071H47.6454V28.1429C47.3838 31.4531 47.6606 33.8741 44.9985 35.8214Z" fill="#DADADA"/>
<path d="M38.3654 5.875V11.25H49.1346V6.54688L48.4616 5.875H38.3654Z" fill="#3A3A3A"/>
<path d="M58.7557 43.5H49.7983V15.8019H38.5063V6.45857H70V15.8019H58.7557V43.5Z" fill="#E2E2E2"/>
</g>
</svg>
